<svg width="359" height="135" xmlns="http://www.w3.org/2000/svg">
  <path d="M21.982 133.992c-3.26.29-11.183-1.282-10.37-3.996.1-1.93 1.01-6.17 1.48-8.818.304-3.788 1.493-7.039 3.51-9.327 4.125-5.8 8.376-12.387 8.895-19.529.673-3.622.98-5.529 1.839-8.663 1.383-5.43 1.953-9.297 3.283-14.603 1.132-3.363 2.239-7.233 2.453-10.661 1.959-4.22 4.388-8.56 3.205-13.357.289-4.268-.142-9.465.372-13.01 1.533-2.974-.992-7.649 2.219-9.473 2.873-3.826 7.742-5.27 12.683-4.571 3.507-.985 13.084-3.214 8.703 3.45-4.885 3.327-9.175 7.596-11.183 13.298-3.51 6.729-1.171 14.85-3.628 21.952-3.195 4.553 1.61 6.926 4.452 4.49 1.425-.68 2.494-.475 3.393-1.362 3.663-1.905 9.103-6.243 13.689-9.031 1.414-1.23 4.468-1.38 5.375-2.05 1.296-.96 5.876-.515 7.583-3.733 3.62-2.151 3.321-7.708 4.427-11.048-.214-2.78.913-5.58-.762-7.984-1.447-2.523-1.54-2.755-4.414-4.343-2.9-4.55 4.804-6.111 8.301-5.57 4.285 1.446 9.487 5.847 7.149 10.763-1.352 10.497-4.209 20.731-3.914 31.579.08 8.055-4.018 15.36-4.17 23.471-1.344 6.798-1.314 14.041-.262 20.885 3.696 5.773-.027 14.14 7.572 16.635 6.433 1.096 13.285-.055 18.84.558 2.558-.487 2.86.468 5.347-.56 1.252-.186 8.223-.812 6.387-.208 5.276-.334 11.175 1.03 16.584.81 7.214.552 14.63.004 21.425.017 2.448.475 4.758.213 6.413.116 3.25.58 5.595-.675 8.455-.162 3.878.696 7.957.179 11.22.067 2.17.468 5.643.327 8.3.274 4.777-.825 9.098.347 13.42.12 2.749.07 5.48-.473 8.045-.157 3.807-.48 6.84.443 10.382.009 3.235.557 7.408.37 10.47.532 1.647-.506 7.71-.588 5.806-.407 8.94-.11 18.146.465 27.21.345 2.768.445 7.835.273 11.604.444 5.866-.513 12.326-.404 18.354-.829 3.05.472 6.666-.244 9.58-.845 3.438.543 8.19.551 11.241.065 4.624 1.112 12.012-.414 14.964-4.813 1.67-1.461 3.156-4.085 4.438-5.419 1.65-3.804 3.21-8.967 5.883-12.9 1.791-3.227 1.912-6.535 1.827-9.494 1.025-1.754-1.014-4.444-1.386-5.654-1.86-2.98-8-2.287-7.833 2.165-1.77 1.837-1.147 7.772-4.505 4.756-.882-4.437-.185-9.324.176-13.97 3.025-2.555 6.853-4.005 10.415-3.574 2.686-1.785 6.761.392 7.233 4.355 2.96 4.672 4.397 10.893 2.691 15.969.164 5.718 1.882 11.95 1.266 17.884.993 2.55-1.212 5.336-2.399 8.123-2.775 3.527-5.928 6.853-8.832 9.64-4.328.303-8.353.812-12.443.386-9.84 1.086-20.01-.643-29.879 1-6.747-.98-13.327.106-20.2-.425-8.606.64-17.617.928-25.82.455-4.856.487-11.494-.02-16.919.193-16.154-.48-32.496-.09-48.72.812-15.74.845-31.62-1.103-47.415-.077-19.13-.623-38.554-1.13-57.823-.462-6.113-.665-16.836 5.696-19.144-1.939 1.106-4.168 3.691-7.178 3.649-11.338.825-8.059 1.526-16.608 3.784-24.511-.477-6.85-1.695-13.082-.804-19.829-2.692-2.74-4.47-9.831-9.633-6.44-6.537 3.762-16.892 2.84-19.976 11.239-.154 8.199-1.978 16.357-1.783 24.654 1.224 5.667 3.565 12.26 4.517 18.657 1.944 3.567-.21 11.517-4.975 11.29-3.572 1.042-8.147.513-10.782 1.8-3.397.683-6.953 1.53-10.535 1.883v.001zm260.665-17.272c-4.511-.496-10.977 1.22-12.671-4.804-1.28-3.888 2.211-7.719 1.982-11.35.36-4.652.338-9.978 2.08-13.379 2.531-4.954 2.927-10.882 4.604-16.538-.158-5.899 1.734-11.814.686-17.553.092-3.341.348-5.056.057-8.043.801-7.796-.337-15.81.6-23.556-1.705-3.434-5.327-5.76-7.445-8.316-6.51-2.23-13.22-1.75-19.442-2.344-4.777-.358-9.447-.225-14.016-1.301-5.66.122-12.367-.058-17.37.069-7.746-1.439-16.52-.07-24.073-.304-11.067.745-22.096-.842-32.896-.267-6.985.606-14.057-.54-21.152.286-9.325-.83-19.714.535-28.155.136-8.073.146-16.482-.465-24.874-.37-4.445-.277-10.75.237-14.626-.174-10.791 1.37-20.931.028-31.582 1.885-6.977 1.183-13.266-1.58-19.57 3.072-5.589 4.118-13.702 7.593-13.544 15.787-.918 5.599-2.915 12.61.16 17.482 3.15 2.082 8.458 5.377 11.22 1.107.302-2.594-1.146-11.727 3.136-8.666.95 2.637.858 5.336 1.53 7.792-.473 3.92-1.602 10.485-6.791 10.158-5.402.33-12.602 2.467-16.624-1.93-1.457-1.623-2.188-2.51-3.842-4.616.176-6.676 1.744-13.517 2.134-20.203.77-4.164.367-8.804 1.464-13.444-1.792-7.082 5.451-10.264 8.954-14.8 7.6-2.009 16.34-.624 23.909-1.514 9.345.171 18.671.214 27.805.232 4.098-.987 7.586.535 12.093-.397 13.698-.359 26.954-.06 40.39.22 9.002.065 18.467.082 27.386.902a867.419 867.419 0 0 1 18.15-.036c5.86-.355 11.337-1.538 16.903-.284 4.885-.268 10.924-.427 16.176.014 3.69-.218 8.668-.869 12.094-.134 5.135.125 10.334 1.054 14.99 1.246 6.041-.91 13.057.983 18.986.055 3.61.146 7.283-.363 11.719.382 1.896.034 4.126-.51 6.19.077 4.668.467 8.831.509 13.363.485 2.906.8 4.197.138 6.266.932 9.069.538 18.144-.077 27.204.39 6.626 2.007 10.614 7.795 15.494 12.496 2.198 5.83 5.097 12.14 8.256 18.054 4.42 7.153 1.94 16.009 2.71 23.824-.92 3.581.79 8.19-1.648 12.06-2.81 10.124-2.727 21.048-6.554 30.804-4.69 2.936-8.82 8.134-12.564 12.007-4.458.712-8.754.653-13.088.611-5.317 1.145-11.008 2.372-16.164 1.76v-.002zm13.94-18.162c13.185-.604 15.431-9.915 14.577-21.687.875-11.183 4.858-23.851.407-33.713 1.695-11.682-16.887-25.453-20.535-9.147-1.037 11.289-.883 23.063-2.085 34.057-.591 8.076-2.455 15.334-1.612 23.682-3.172 8.04 3.436 6.52 9.248 6.809v-.001zm-88.902 15.606c-3.205-2.649-6.171-7.649-2.868-11.379 2.113-3.171 3.712-6.456 4.799-9.828-1.157-8.36.401-16.774-1.436-24.82.404-6.225-1.534-13.05-1.366-19.215-.447-4.64.977-10.197-.143-15.386.208-4.819-2.68-8.498-6.021-11.959-2.514-6.61 4.444-4.997 8.374-5.548 4.672-3.154 9.04 2.43 7.908 7.004.85 3.222-1.016 14.997 4.06 8.858 3.836-3.017 7.611-5.57 11.578-8.503 4.083-4.942 12.283-5.93 18.377-4.385 5.72 4.492 11.11 10.355 17.064 14.321 6.336 5.895 1.423 15.981 3.98 23.72-.777 3.834-.482 8.28-3.48 11.26-2.535 4.085-4.604 9-7.79 13.01-1.895 5.595-5.798 10.331-8.025 15.7-2.092 3.586 1.284 8.711 4.4 8.648 2.619.969 6.613 4.944 3.023 7.5-5.793.012-11.432-1.53-17.134-2.255-4.787 2.865-8.927-2.923-6.277-7.374 2.716-2.525 5.1-5.9 7.072-9.305 1.94-4.628 5.166-8.352 6.215-13.389 3.705-6.124 2.043-13.513 2.946-20.249-.113-2.587-.648-7.23-.994-10.136.283-4.486-3.626-7.228-7.091-9.335-3.575-4.873-10.883-7.343-15.602-2.493-4.73 4.615-13.12 7.922-11.968 15.723 1.95 12.068-.519 25.683 6.943 36.163 5.183 4.961 2.97 12.648 5.502 18.653-3.182 7.35-13.75 2.976-20.08 4.758-.612.347-1.321.114-1.966.242v-.001zm-105.97-2.253c-3.947.074-9.198-1.993-8.677-6.509-.773-9.045-.964-17.98-1.832-27.274 1.42-8.126 3.145-15.729 4.635-23.779.822-3.884 1.346-6.765 3.703-10.002 3.308-6.733 5.41-13.885 7.972-20.954 3.566-2.764 7.39-6.833 12.295-4.463 6.046-.372 15.207-.3 18.214.43 3.54 1.561 11.141 8.956 8.192 15.904-1.478 9.772-4.113 19.522-2.822 29.208 1.11 5.665 3.224 12.371.18 17.911.515 6.53 1.125 13.07 1.351 19.567-3.878 3.912-6.936 10.898-13.612 8.716-6.645-2.819-13.718-2.3-20.372-.113-3.07.471-6.087 1.555-9.227 1.358zm14.414-21.505c.767-.258 5.425-1.721 7.264-3.738 4.315-3.495 2.948-9.007 1.67-13.428-2.051-6.262.8-12.731.802-19.023 1.312-5.081 5.09-12.42 2.022-17.719-4.507-2.25-13.226-3.468-15.503 2.135.698 7.393-4.556 12.706-5.484 19.288-.156 8.976-2.926 17.567-2.376 26.722 1.66 4.946 6.788 6.802 11.605 5.763zm74.27 20.305c-7.822-1.779-15.855-1.33-23.592-3.632-5.176-.558-10.852-1.26-13.355-6.59-3.02-5.408-3.206-12.161-4.898-17.686.65-6.215-.93-12.31 1.57-18.153.485-4.93-.394-9.59.323-14.775-.313-4.294-1.11-7.708-.263-12.134 1.334-4.582 1.536-10.797 3.518-14.772 3.852-3.02 4.295-9.971 9.464-10.039 2.967 2.014-2.248 9.067-1.324 7.661-2.826 6.804-2.405 14.396-1.719 21.62.29 6.434 2.805 13.42 1.068 19.514-.914 7.57.958 22.683 11.884 16.833 9.022-2.75 18.285-7.217 16.307-18.325 1.282-6.591.68-13.334.884-19.899-.752-4.345-2.23-7.156-3.666-11.335-1.388-3.634-3.798-6.036-5.499-9.064-2.928-4.062 6.38.497 4.733.017 4.57 2.959 9.725 7.43 10.32 12.796 2.511 7.129 6.871 13.925 5.27 21.79-.34 6.184.262 12.367 2.063 18.235-.41 9.914 4.323 21.386-3.276 29.677-1.392 3.967-5.757 8.107-9.811 8.262z" fill="#3B352E" fill-rule="nonzero"/>
</svg>
