<svg width="55" height="54" xmlns="http://www.w3.org/2000/svg">
  <g fill-rule="nonzero" fill="none">
    <path d="M27.5 0C12.585 0 .5 12.085.5 27s12.085 27 27 27 27-12.085 27-27-12.085-27-27-27z" fill="#262422"/>
    <path d="M17.188 26.922l.287 3.214-.287 3.377c-.015.124-.109.218-.218.218a.214.214 0 0 1-.207-.218l-.277-3.377.277-3.214c0-.109.094-.208.207-.208.11 0 .203.1.218.208zm1.058-2.255c-.138 0-.232.109-.247.247l-.247 5.222.247 3.377c.015.139.109.247.247.247.124 0 .233-.108.233-.247l.286-3.377-.286-5.222c0-.138-.11-.247-.233-.247zm1.261-1.191c-.153 0-.262.108-.277.262l-.217 6.428.217 3.352c.015.153.124.262.277.262a.26.26 0 0 0 .262-.262l.262-3.352-.262-6.428a.26.26 0 0 0-.262-.262zm-7.471 4.776c-.07 0-.11.054-.124.124l-.232 1.76.232 1.73c.015.07.054.124.124.124.069 0 .108-.054.123-.123l.277-1.731-.277-1.76c-.015-.07-.054-.124-.123-.124zm1.167-1.083a.122.122 0 0 0-.124.124l-.316 2.843.316 2.774c0 .084.054.138.124.138.069 0 .123-.054.138-.123l.356-2.789-.356-2.843c-.015-.07-.07-.124-.138-.124zm1.25-.563c-.083 0-.153.069-.163.163l-.286 3.367.286 3.254c.015.084.085.153.164.153.084 0 .153-.07.153-.153l.341-3.254-.341-3.367c0-.094-.07-.163-.153-.163zm1.252-.11a.174.174 0 0 0-.178.179l-.287 3.461.287 3.352c0 .11.084.178.178.178.094 0 .178-.069.192-.178l.317-3.352-.317-3.461a.197.197 0 0 0-.192-.178zm11.936-5.483a.386.386 0 0 0-.208-.07.455.455 0 0 0-.277.095.507.507 0 0 0-.163.331v.04l-.163 8.737.084 1.607.084 1.567a.452.452 0 0 0 .44.426.428.428 0 0 0 .425-.426l.193-3.174-.193-8.777a.476.476 0 0 0-.222-.356zm-1.32.757a.435.435 0 0 0-.218-.07.42.42 0 0 0-.217.07.39.39 0 0 0-.178.331l-.015.084-.139 7.951.154 3.244v.014c0 .085.03.164.084.233a.424.424 0 0 0 .316.153.401.401 0 0 0 .277-.123.34.34 0 0 0 .124-.277l.014-.332.154-2.897-.163-8.05a.444.444 0 0 0-.193-.331zm-5.509 1.112c-.153 0-.286.139-.286.302l-.218 6.952.218 3.323c.014.163.138.287.286.287a.303.303 0 0 0 .302-.287l.247-3.323-.247-6.952c-.01-.163-.133-.302-.302-.302zm18.627 3.105c-.534 0-1.044.11-1.513.302-.317-3.5-3.254-6.25-6.839-6.25-.88 0-1.73.163-2.487.465-.301.109-.386.217-.386.455v12.346c0 .248.193.426.426.455h10.794c2.14 0 3.886-1.73 3.886-3.871a3.89 3.89 0 0 0-3.881-3.902zm-14.67-2.981c-.209 0-.372.163-.387.386l-.163 6.759.163 3.243a.39.39 0 0 0 .386.371c.208 0 .37-.163.37-.37l.194-3.244-.193-6.76c-.015-.222-.163-.385-.37-.385zm-2.651-.386c-.163 0-.317.153-.317.331l-.193 7.185.193 3.308c.015.178.154.316.317.316a.335.335 0 0 0 .331-.316l.218-3.308-.218-7.185c-.015-.178-.153-.33-.331-.33zm1.32.168a.339.339 0 0 0-.341.341l-.193 7.007.193 3.283c.015.193.153.341.341.341a.342.342 0 0 0 .341-.34l.208-3.284-.208-7.007a.336.336 0 0 0-.341-.34z" fill="#FFF"/>
  </g>
</svg>
