<svg width="54" height="54" xmlns="http://www.w3.org/2000/svg">
  <g fill-rule="nonzero" fill="none">
    <path d="M27 0C12.085 0 0 12.085 0 27s12.085 27 27 27 27-12.085 27-27S41.915 0 27 0z" fill="#262422"/>
    <path d="M38.162 24.098c.177-.14.44-.01.44.213v9.268c0 1.2-.975 2.175-2.176 2.175H17.574c-1.201 0-2.176-.974-2.176-2.175v-9.264c0-.226.259-.353.44-.213 1.015.789 2.361 1.79 6.984 5.149.956.698 2.57 2.166 4.178 2.157 1.618.013 3.263-1.487 4.183-2.157 4.622-3.358 5.964-4.364 6.979-5.153zM27 29.953c1.051.018 2.565-1.323 3.326-1.876 6.014-4.364 6.472-4.745 7.859-5.833.262-.204.417-.52.417-.856v-.861c0-1.201-.975-2.175-2.176-2.175H17.574c-1.201 0-2.176.974-2.176 2.175v.86c0 .336.155.649.417.857 1.387 1.084 1.845 1.469 7.859 5.833.761.553 2.275 1.894 3.326 1.876z" fill="#FFF"/>
  </g>
</svg>
