<svg width="55" height="54" xmlns="http://www.w3.org/2000/svg">
  <g fill-rule="nonzero" fill="none">
    <path d="M27.5 0C12.585 0 .5 12.085.5 27s12.085 27 27 27 27-12.085 27-27-12.085-27-27-27z" fill="#262422"/>
    <path d="M39.627 20.925a3.18 3.18 0 0 0-2.238-2.252c-1.974-.532-9.889-.532-9.889-.532s-7.915 0-9.89.532a3.18 3.18 0 0 0-2.237 2.252c-.53 1.987-.53 6.133-.53 6.133s0 4.145.53 6.132c.29 1.096 1.149 1.923 2.238 2.216 1.974.532 9.889.532 9.889.532s7.915 0 9.89-.532c1.088-.293 1.946-1.12 2.237-2.216.53-1.987.53-6.132.53-6.132s0-4.146-.53-6.133zm-14.716 9.896v-7.527l6.616 3.764-6.616 3.763z" fill="#FFF"/>
  </g>
</svg>
